<?xml version="1.0" standalone="no"?>
<!DOCTYPE svg PUBLIC "-//W3C//DTD SVG 20010904//EN"
 "http://www.w3.org/TR/2001/REC-SVG-20010904/DTD/svg10.dtd">
<svg version="1.0" xmlns="http://www.w3.org/2000/svg"
 width="512.000000pt" height="512.000000pt" viewBox="0 0 512.000000 512.000000"
 preserveAspectRatio="xMidYMid meet">
<metadata>
Created by potrace 1.11, written by Peter Selinger 2001-2013
</metadata>
<g transform="translate(0.000000,512.000000) scale(0.100000,-0.100000)"
fill="#000000" stroke="none">
<path d="M2447 4804 c-1 -1 -38 -5 -82 -8 -44 -3 -90 -8 -101 -10 -12 -3 -39
-7 -60 -11 -77 -12 -100 -16 -139 -26 -22 -6 -48 -13 -58 -15 -36 -7 -193 -56
-224 -70 -17 -8 -34 -14 -38 -14 -6 0 -63 -25 -165 -72 -46 -22 -197 -106
-215 -120 -5 -5 -36 -26 -68 -47 -93 -61 -206 -154 -292 -239 -72 -71 -105
-106 -204 -223 -66 -78 -185 -269 -251 -403 -60 -123 -130 -302 -145 -369 -2
-12 -11 -47 -19 -77 -8 -30 -18 -71 -21 -90 -3 -19 -8 -42 -10 -50 -10 -34
-28 -202 -29 -267 -1 -24 -3 -43 -6 -43 -5 0 -4 -58 0 -70 1 -3 1 -9 0 -15 -3
-18 -1 -99 6 -170 3 -38 7 -91 8 -117 0 -27 5 -48 9 -48 5 0 8 -10 7 -22 -1
-13 -1 -25 0 -28 1 -3 3 -14 5 -25 9 -41 24 -111 28 -130 35 -139 67 -233 114
-340 49 -114 53 -121 101 -207 25 -45 40 -83 36 -90 -4 -7 -4 -10 1 -6 11 11
38 -20 31 -37 -3 -8 -1 -14 5 -12 6 1 16 -7 22 -18 12 -19 20 -30 44 -59 7 -8
13 -19 13 -25 0 -5 4 -11 8 -13 17 -7 92 -110 86 -119 -3 -5 -2 -9 3 -8 17 3
36 -1 31 -6 -3 -4 23 -36 58 -72 35 -36 61 -71 57 -76 -3 -6 -1 -7 4 -4 10 6
66 -38 145 -114 21 -20 40 -34 43 -31 3 3 5 0 5 -6 0 -7 6 -12 13 -12 6 0 29
-15 50 -34 21 -19 52 -40 68 -46 16 -7 29 -16 29 -21 0 -5 6 -9 13 -9 7 0 23
-9 35 -20 12 -11 28 -20 37 -20 8 0 15 -4 15 -9 0 -5 12 -14 28 -20 15 -5 38
-17 52 -25 14 -9 57 -30 95 -47 39 -17 85 -38 103 -46 18 -8 42 -16 52 -18 11
-2 26 -7 33 -12 6 -4 18 -9 25 -10 26 -6 34 -9 90 -30 9 -3 30 -8 47 -10 16
-3 32 -8 35 -12 3 -3 21 -8 40 -10 19 -2 40 -6 45 -9 6 -4 17 -7 25 -7 8 -1
40 -5 70 -10 71 -11 91 -13 113 -14 12 -1 16 -5 11 -13 -6 -10 -5 -10 7 -1 9
7 26 10 40 7 13 -2 41 -5 61 -5 23 -1 35 -5 31 -12 -4 -6 -1 -7 7 -2 7 5 72
10 144 11 72 2 158 6 191 10 33 3 77 7 98 7 20 1 37 4 37 7 0 11 34 8 49 -4
11 -8 13 -8 8 1 -9 15 -1 20 48 27 22 4 55 11 72 17 18 6 37 8 43 4 5 -3 10
-2 10 3 0 6 13 9 29 8 17 -1 28 1 25 5 -5 9 52 29 60 22 3 -4 6 -1 6 6 0 7 4
10 9 6 5 -3 34 6 65 19 30 13 57 22 60 18 3 -3 6 0 6 6 0 7 4 12 9 12 5 0 28
9 52 19 24 11 49 20 54 21 6 1 16 6 22 12 7 6 13 8 13 4 0 -3 9 2 20 12 12 9
24 17 28 17 4 1 23 11 42 23 19 12 47 28 63 35 15 6 27 15 27 19 0 5 7 8 15 8
8 0 15 4 15 8 0 5 11 14 25 20 14 7 31 17 38 22 44 37 61 50 66 50 3 0 19 11
34 25 15 14 27 23 27 20 0 -3 11 5 24 19 13 15 26 26 29 26 3 0 26 21 51 46
27 27 51 42 57 38 8 -4 9 -3 5 4 -4 6 16 35 46 65 70 73 161 172 157 172 -2 0
11 21 30 47 19 26 38 45 42 42 5 -3 6 2 3 10 -3 9 -1 16 5 16 6 0 11 5 11 11
0 17 40 70 49 65 4 -3 7 5 7 17 -1 13 4 21 12 19 8 -1 11 2 7 8 -4 6 -2 16 3
23 10 12 116 218 117 227 3 20 31 80 37 80 4 0 7 3 7 8 -4 24 2 42 13 36 7 -4
8 -3 4 4 -9 14 14 93 25 87 4 -3 11 0 15 6 5 8 3 9 -6 4 -10 -6 -11 -3 -6 16
4 13 15 56 24 94 9 39 19 71 23 73 4 2 5 12 2 22 -3 11 -1 20 3 20 5 0 9 12
10 28 0 15 4 50 8 77 4 28 10 73 14 100 8 56 7 454 -1 500 -3 17 -8 50 -11 75
-3 25 -8 56 -11 70 -3 14 -8 39 -10 55 -10 55 -63 245 -82 295 -4 8 -7 17 -8
20 -19 54 -75 180 -116 261 -250 488 -689 877 -1212 1073 -109 41 -272 87
-352 99 -16 3 -57 10 -90 16 -87 15 -183 23 -328 24 -71 1 -129 1 -130 1z"/>
<path d="M4290 1106 c0 -2 7 -7 16 -10 8 -3 12 -2 9 4 -6 10 -25 14 -25 6z"/>
<path d="M4107 879 c7 -7 15 -10 18 -7 3 3 -2 9 -12 12 -14 6 -15 5 -6 -5z"/>
<path d="M1036 853 c-6 -14 -5 -15 5 -6 7 7 10 15 7 18 -3 3 -9 -2 -12 -12z"/>
<path d="M1210 726 c0 -2 7 -7 16 -10 8 -3 12 -2 9 4 -6 10 -25 14 -25 6z"/>
<path d="M1315 669 c-4 -6 -5 -12 -2 -15 2 -3 7 2 10 11 7 17 1 20 -8 4z"/>
<path d="M3815 661 c-3 -5 -2 -12 3 -15 5 -3 9 1 9 9 0 17 -3 19 -12 6z"/>
<path d="M3720 600 c-9 -6 -10 -10 -3 -10 6 0 15 5 18 10 8 12 4 12 -15 0z"/>
<path d="M3516 493 c-6 -14 -5 -15 5 -6 7 7 10 15 7 18 -3 3 -9 -2 -12 -12z"/>
<path d="M3350 401 c0 -6 4 -13 10 -16 6 -3 7 1 4 9 -7 18 -14 21 -14 7z"/>
<path d="M1896 382 c-3 -4 4 -9 15 -9 23 -2 25 3 4 10 -8 4 -16 3 -19 -1z"/>
<path d="M3006 342 c-3 -5 1 -9 9 -9 8 0 12 4 9 9 -3 4 -7 8 -9 8 -2 0 -6 -4
-9 -8z"/>
<path d="M2250 305 c0 -7 30 -13 34 -7 3 4 -4 9 -15 9 -10 1 -19 0 -19 -2z"/>
<path d="M2376 298 c3 -4 11 -5 19 -1 21 7 19 12 -4 10 -11 0 -18 -5 -15 -9z"/>
</g>
</svg>
